<svg width="87" height="91" viewBox="0 0 87 91" fill="none" xmlns="http://www.w3.org/2000/svg">
<path d="M87 8.69062V81.4545C87 86.343 83.3103 90.1451 78.6107 90.1451H8.38929C3.74799 90.125 0 86.3832 0 81.4344V8.69062C0 3.84238 3.65089 0 8.38929 0H78.6301C83.2908 0 87 3.78203 87 8.69062ZM79.7565 81.4344V8.69062C79.7565 8.08711 79.2516 7.52383 78.6301 7.52383H76.8241L55.4042 22.5312L43.5 12.4928L31.6152 22.5312L10.1953 7.50371H8.38929C7.76786 7.50371 7.26295 8.06699 7.26295 8.67051V81.4344C7.26295 82.0379 7.76786 82.6012 8.38929 82.6012H78.6301C79.2516 82.6213 79.7565 82.058 79.7565 81.4344ZM29.1683 30.9805V38.4238H14.8949V30.9805H29.1683ZM29.1683 45.9477V53.4514H14.8949V45.9477H29.1683ZM31.3239 16.315L41.8105 7.52383H18.7982L31.3239 16.315ZM72.1051 30.9805V38.4238H34.0426V30.9805H72.1051ZM72.1051 45.9477V53.4514H34.0426V45.9477H72.1051ZM55.6761 16.315L68.2018 7.52383H45.2089L55.6761 16.315ZM72.1051 60.9551V68.4588H52.802V60.9551H72.1051Z" fill="#7485BE"/>
</svg>
