<svg width="113" height="90" viewBox="0 0 113 90" fill="none" xmlns="http://www.w3.org/2000/svg">
<g clip-path="url(#clip0_124_108)">
<path d="M11.2336 16.25C11.2336 10.0449 16.2711 5 22.4672 5H89.8686C96.0646 5 101.102 10.0449 101.102 16.25V61.25H89.8686V16.25H22.4672V61.25H11.2336V16.25ZM0 70.25C0 68.3867 1.50951 66.875 3.37007 66.875H108.966C110.826 66.875 112.336 68.3867 112.336 70.25C112.336 77.7031 106.298 83.75 98.8555 83.75H13.4803C6.03805 83.75 0 77.7031 0 70.25ZM49.3224 36.1133L43.8812 41.5625L49.3224 47.0117C50.9724 48.6641 50.9724 51.3359 49.3224 52.9707C47.6725 54.6055 45.0045 54.623 43.3721 52.9707L34.947 44.5332C33.297 42.8809 33.297 40.209 34.947 38.5742L43.3721 30.1367C45.0221 28.4844 47.69 28.4844 49.3224 30.1367C50.9548 31.7891 50.9724 34.4609 49.3224 36.0957V36.1133ZM68.9812 30.1367L77.4064 38.5742C79.0563 40.2266 79.0563 42.8984 77.4064 44.5332L68.9812 52.9707C67.3313 54.623 64.6633 54.623 63.0309 52.9707C61.3985 51.3184 61.381 48.6465 63.0309 47.0117L68.4722 41.5625L63.0309 36.1133C61.381 34.4609 61.381 31.7891 63.0309 30.1543C64.6808 28.5195 67.3488 28.502 68.9812 30.1543V30.1367Z" fill="#7485BE"/>
</g>
<defs>
<clipPath id="clip0_124_108">
<rect width="112.336" height="90" fill="white"/>
</clipPath>
</defs>
</svg>
