<svg width="90" height="90" viewBox="0 0 90 90" fill="none" xmlns="http://www.w3.org/2000/svg">
<path d="M55.0898 11.1652C59.6602 12.0793 62.6309 16.5266 61.7168 21.0969L61.3125 23.1008C60.3809 27.7941 58.6582 32.259 56.25 36.3195H81.5625C86.2207 36.3195 90 40.0988 90 44.757C90 48.009 88.1543 50.8391 85.4473 52.2453C87.3633 53.7922 88.5938 56.1652 88.5938 58.8195C88.5938 62.9328 85.6406 66.3605 81.7559 67.0988C82.5293 68.382 82.9688 69.8762 82.9688 71.4758C82.9688 75.2199 80.5254 78.4016 77.1504 79.4914C77.2734 80.0715 77.3438 80.6867 77.3438 81.3195C77.3438 85.9777 73.5645 89.757 68.9062 89.757H51.7676C48.4277 89.757 45.1758 88.7727 42.3984 86.9269L35.6309 82.4094C30.9375 79.2805 28.125 74.007 28.125 68.3644V61.632V53.1945V48.8176C28.125 43.6848 30.4629 38.8508 34.4531 35.634L35.7539 34.5969C40.4121 30.8703 43.5938 25.632 44.7539 19.7961L45.1582 17.7922C46.0723 13.2219 50.5195 10.2512 55.0898 11.1652ZM5.625 39.132H16.875C19.9863 39.132 22.5 41.6457 22.5 44.757V84.132C22.5 87.2434 19.9863 89.757 16.875 89.757H5.625C2.51367 89.757 0 87.2434 0 84.132V44.757C0 41.6457 2.51367 39.132 5.625 39.132Z" fill="#7485BE"/>
</svg>
