<svg width="113" height="90" viewBox="0 0 113 90" fill="none" xmlns="http://www.w3.org/2000/svg">
<g clip-path="url(#clip0_124_102)">
<path d="M39.375 46C45.3424 46 51.0653 43.6295 55.2849 39.4099C59.5045 35.1903 61.875 29.4674 61.875 23.5C61.875 17.5326 59.5045 11.8097 55.2849 7.5901C51.0653 3.37053 45.3424 1 39.375 1C33.4076 1 27.6847 3.37053 23.4651 7.5901C19.2455 11.8097 16.875 17.5326 16.875 23.5C16.875 29.4674 19.2455 35.1903 23.4651 39.4099C27.6847 43.6295 33.4076 46 39.375 46ZM31.3418 54.4375C14.0273 54.4375 0 68.4648 0 85.7793C0 88.6621 2.33789 91 5.2207 91H56.7422C56.1973 89.4531 56.0918 87.7656 56.4961 86.1133L59.1328 75.5488C59.625 73.5625 60.6445 71.7695 62.0859 70.3281L69.1699 63.2441C63.5273 57.7949 55.8633 54.4375 47.3906 54.4375H31.3418ZM107.895 42.4316C105.152 39.6895 100.705 39.6895 97.9453 42.4316L92.7773 47.5996L105.258 60.0801L110.426 54.9121C113.168 52.1699 113.168 47.7227 110.426 44.9629L107.895 42.4316ZM66.0762 74.3008C65.3555 75.0215 64.8457 75.918 64.5996 76.9199L61.9629 87.4844C61.7168 88.4512 61.9981 89.4531 62.7012 90.1562C63.4043 90.8594 64.4062 91.1406 65.373 90.8945L75.9375 88.2578C76.9219 88.0117 77.8359 87.502 78.5566 86.7812L101.268 64.0527L88.7871 51.5723L66.0762 74.3008Z" fill="#7485BE"/>
</g>
<defs>
<clipPath id="clip0_124_102">
<rect width="112.5" height="90" fill="white"/>
</clipPath>
</defs>
</svg>
