<svg width="90" height="90" viewBox="0 0 90 90" fill="none" xmlns="http://www.w3.org/2000/svg">
<g clip-path="url(#clip0_124_104)">
<path d="M90 45C90 45.1582 90 45.3164 90 45.4746C89.9297 51.8906 84.0938 56.25 77.6777 56.25H60.4688C55.8105 56.25 52.0312 60.0293 52.0312 64.6875C52.0312 65.2852 52.1016 65.8652 52.207 66.4277C52.5762 68.2207 53.3496 69.9434 54.1055 71.6836C55.1777 74.1094 56.2324 76.5176 56.2324 79.0664C56.2324 84.6562 52.4355 89.7363 46.8457 89.9648C46.2305 89.9824 45.6152 90 44.9824 90C20.1445 90 0 69.8555 0 45C0 20.1445 20.1445 0 45 0C69.8555 0 90 20.1445 90 45ZM22.5 50.625C22.5 49.1332 21.9074 47.7024 20.8525 46.6475C19.7976 45.5926 18.3668 45 16.875 45C15.3832 45 13.9524 45.5926 12.8975 46.6475C11.8426 47.7024 11.25 49.1332 11.25 50.625C11.25 52.1168 11.8426 53.5476 12.8975 54.6025C13.9524 55.6574 15.3832 56.25 16.875 56.25C18.3668 56.25 19.7976 55.6574 20.8525 54.6025C21.9074 53.5476 22.5 52.1168 22.5 50.625ZM22.5 33.75C23.9918 33.75 25.4226 33.1574 26.4775 32.1025C27.5324 31.0476 28.125 29.6168 28.125 28.125C28.125 26.6332 27.5324 25.2024 26.4775 24.1475C25.4226 23.0926 23.9918 22.5 22.5 22.5C21.0082 22.5 19.5774 23.0926 18.5225 24.1475C17.4676 25.2024 16.875 26.6332 16.875 28.125C16.875 29.6168 17.4676 31.0476 18.5225 32.1025C19.5774 33.1574 21.0082 33.75 22.5 33.75ZM50.625 16.875C50.625 15.3832 50.0324 13.9524 48.9775 12.8975C47.9226 11.8426 46.4918 11.25 45 11.25C43.5082 11.25 42.0774 11.8426 41.0225 12.8975C39.9676 13.9524 39.375 15.3832 39.375 16.875C39.375 18.3668 39.9676 19.7976 41.0225 20.8525C42.0774 21.9074 43.5082 22.5 45 22.5C46.4918 22.5 47.9226 21.9074 48.9775 20.8525C50.0324 19.7976 50.625 18.3668 50.625 16.875ZM67.5 33.75C68.9918 33.75 70.4226 33.1574 71.4775 32.1025C72.5324 31.0476 73.125 29.6168 73.125 28.125C73.125 26.6332 72.5324 25.2024 71.4775 24.1475C70.4226 23.0926 68.9918 22.5 67.5 22.5C66.0082 22.5 64.5774 23.0926 63.5225 24.1475C62.4676 25.2024 61.875 26.6332 61.875 28.125C61.875 29.6168 62.4676 31.0476 63.5225 32.1025C64.5774 33.1574 66.0082 33.75 67.5 33.75Z" fill="#7485BE"/>
</g>
<defs>
<clipPath id="clip0_124_104">
<rect width="90" height="90" fill="white"/>
</clipPath>
</defs>
</svg>
