<svg width="50" height="70" viewBox="0 0 50 70" fill="none" xmlns="http://www.w3.org/2000/svg">
<path d="M49.2 2.7V67.3C49.2 68.0333 48.9333 68.6667 48.4 69.2C47.8667 69.7333 47.2333 70 46.5 70H26.9C26.1667 70 25.5333 69.7333 25 69.2C24.4667 68.6667 24.2 68.0333 24.2 67.3V26.9L13 35.5C12.4667 35.9 11.8667 36.1 11.2 36.1C10.6 36.1 9.93333 35.6333 9.2 34.7L0.4 23.3C0.133333 22.8333 7.07805e-08 22.4 7.07805e-08 22C7.07805e-08 20.8 0.433333 19.9333 1.3 19.4L25.4 0.699998C26.0667 0.23333 26.8 -4.76837e-06 27.6 -4.76837e-06H46.5C47.2333 -4.76837e-06 47.8667 0.266662 48.4 0.799997C48.9333 1.33333 49.2 1.96666 49.2 2.7Z" fill="#FE9B27"/>
</svg>
