<svg width="65" height="72" viewBox="0 0 65 72" fill="none" xmlns="http://www.w3.org/2000/svg">
<path d="M61.5 51.4C62.2333 51.4 62.8667 51.6667 63.4 52.2C63.9333 52.7333 64.2 53.3667 64.2 54.1V69.3C64.2 70.0333 63.9333 70.6667 63.4 71.2C62.8667 71.7333 62.2333 72 61.5 72H2.7C1.96667 72 1.33333 71.7333 0.8 71.2C0.266667 70.6667 7.45058e-08 70.0333 7.45058e-08 69.3V58.9C7.45058e-08 56.5 0.833333 54.7 2.5 53.5C16.6333 43.3 25.2 36.9 28.2 34.3C32.9333 30.1667 35.3 26.8333 35.3 24.3C35.3 22.2333 34.7667 21 33.7 20.6C33.1667 20.4 32.5667 20.3 31.9 20.3C31.3 20.3 30.7667 20.3667 30.3 20.5C29.9 20.5667 29.5333 20.7 29.2 20.9C28.8667 21.0333 28.5667 21.2333 28.3 21.5C28.0333 21.7667 27.8 22 27.6 22.2C27.4667 22.4 27.3 22.7 27.1 23.1C26.9 23.5 26.7667 23.8 26.7 24C26.3667 24.8 26.2 25.2667 26.2 25.4C25.6667 26.9333 24.3333 27.7 22.2 27.7H3.4C2.8 27.7 2.26667 27.5 1.8 27.1C1.4 26.6333 1.2 26.1 1.2 25.5C1.2 18.1 4.06667 12.1 9.8 7.5C15.6 2.9 22.9667 0.599995 31.9 0.599995C40.9 0.599995 48.0667 2.6 53.4 6.6C58.8 10.5333 61.5 16 61.5 23C61.5 28.2667 59.6667 33.0333 56 37.3C52.3333 41.5667 46.7333 46.2667 39.2 51.4H61.5Z" fill="#829DFF"/>
</svg>
