<svg width="66" height="71" viewBox="0 0 66 71" fill="none" xmlns="http://www.w3.org/2000/svg">
<path d="M65.2 48.1C65.2 54.9667 62.1333 60.5 56 64.7C49.8667 68.9 42.0333 71 32.5 71C26.8333 71 21.7667 70.3 17.3 68.9C12.9 67.5 9.5 65.7 7.1 63.5C2.36667 59.1667 7.45058e-08 54.7333 7.45058e-08 50.2C7.45058e-08 49.6 0.2 49.1 0.6 48.7C1.06667 48.2333 1.6 48 2.2 48H22.3C23.5 48 24.7 48.6 25.9 49.8C27.1 51 29.2333 51.6 32.3 51.6C36.9 51.6 39.2 49.8333 39.2 46.3C39.2 43.3667 36.8667 41.9 32.2 41.9H20.1C19.3667 41.9 18.7333 41.6333 18.2 41.1C17.6667 40.5667 17.4 39.9333 17.4 39.2V31.1C17.4 29.2333 18.0667 27.9 19.4 27.1L33.3 19.5H7C6.26667 19.5 5.63333 19.2333 5.1 18.7C4.56667 18.1667 4.3 17.5333 4.3 16.8V2.7C4.3 1.96666 4.56667 1.33333 5.1 0.799997C5.63333 0.266662 6.26667 -4.76837e-06 7 -4.76837e-06H58.2C58.9333 -4.76837e-06 59.5667 0.266662 60.1 0.799997C60.6333 1.33333 60.9 1.96666 60.9 2.7V15.4C60.9 17.1333 60.2333 18.4667 58.9 19.4L47.2 27.4C59.2 30.4 65.2 37.3 65.2 48.1Z" fill="#855BB8"/>
</svg>
