<svg width="69" height="70" viewBox="0 0 69 70" fill="none" xmlns="http://www.w3.org/2000/svg">
<path d="M56.6 38.5H65.3C66.1 38.5 66.7667 38.7667 67.3 39.3C67.8333 39.8333 68.1 40.4667 68.1 41.2V56.1C68.1 56.8333 67.8333 57.4667 67.3 58C66.7667 58.5333 66.1333 58.8 65.4 58.8H56.6V67.3C56.6 68.0333 56.3333 68.6667 55.8 69.2C55.2667 69.7333 54.6333 70 53.9 70H35.3C34.5667 70 33.9333 69.7333 33.4 69.2C32.8667 68.6667 32.6 68.0333 32.6 67.3V58.8H2.7C1.96667 58.8 1.33333 58.5333 0.8 58C0.266667 57.4667 7.45058e-08 56.8333 7.45058e-08 56.1V41.8C7.45058e-08 40.6667 0.366667 39.6333 1.1 38.7L29.4 1.7C30.3333 0.566663 31.5667 -4.76837e-06 33.1 -4.76837e-06H53.9C54.6333 -4.76837e-06 55.2667 0.266662 55.8 0.799997C56.3333 1.33333 56.6 1.96666 56.6 2.7V38.5ZM33.3 39.6V25.2L22.8 39.6H33.3Z" fill="#7ADDBA"/>
</svg>
