<svg width="65" height="72" viewBox="0 0 65 72" fill="none" xmlns="http://www.w3.org/2000/svg">
<path d="M26.6 48.4C27.5333 49.6 28.4 50.4667 29.2 51C30 51.4667 31.2 51.7 32.8 51.7C34.4667 51.7 35.8667 51.1667 37 50.1C38.2 48.9667 38.8 47.5 38.8 45.7C38.8 43.9 38.2333 42.4 37.1 41.2C36.0333 40 34.6333 39.4 32.9 39.4C31.1667 39.4 29.7 39.8 28.5 40.6C27.3667 41.4 26.6333 41.8 26.3 41.8H6.4C5.8 41.8 5.26667 41.6 4.8 41.2C4.4 40.7333 4.2 40.2 4.2 39.6V39.1L8.2 3.4C8.46667 1.13333 9.76667 -4.76837e-06 12.1 -4.76837e-06H56.8C57.5333 -4.76837e-06 58.1667 0.266662 58.7 0.799997C59.2333 1.33333 59.5 1.96666 59.5 2.7V16.8C59.5 17.5333 59.2333 18.1667 58.7 18.7C58.1667 19.2333 57.5333 19.5 56.8 19.5H27.6L26.8 26.6C30.1333 24.3333 34.7667 23.2 40.7 23.2C46.7 23.2 52.1667 25.4333 57.1 29.9C62.1 34.3 64.6 39.9 64.6 46.7C64.6 53.4333 61.8 59.2 56.2 64C50.6 68.8 42.7333 71.2 32.6 71.2C22.4667 71.2 14.5667 69.0667 8.9 64.8C3.3 60.4667 0.5 55.1333 0.5 48.8C0.5 48.2 0.7 47.7 1.1 47.3C1.56667 46.8333 2.1 46.6 2.7 46.6H22.9C24.4333 46.6 25.6667 47.2 26.6 48.4Z" fill="#FF8282"/>
</svg>
