<svg width="53" height="57" viewBox="0 0 53 57" fill="none" xmlns="http://www.w3.org/2000/svg">
<path d="M52.08 35.68C52.08 41.76 49.6533 46.8 44.8 50.8C40 54.8 33.7867 56.8 26.16 56.8C18.5867 56.8 12.32 54.96 7.36 51.28C2.45333 47.6 5.96046e-08 42.5333 5.96046e-08 36.08C5.96046e-08 31.1733 2.58667 25.36 7.76 18.64L20.8 1.6C21.5467 0.533331 22.5867 -3.8147e-06 23.92 -3.8147e-06H40C40.48 -3.8147e-06 40.88 0.186664 41.2 0.559999C41.5733 0.879998 41.76 1.25333 41.76 1.68C41.76 2.10667 41.6533 2.48 41.44 2.8L31.36 16.16C35.68 16.3733 40.1067 18.08 44.64 21.28C46.7733 22.7733 48.5333 24.8 49.92 27.36C51.36 29.8667 52.08 32.64 52.08 35.68ZM26.16 41.2C27.76 41.2 29.0667 40.7467 30.08 39.84C31.1467 38.88 31.68 37.6 31.68 36C31.68 34.3467 31.1467 33.0667 30.08 32.16C29.0667 31.2533 27.76 30.8 26.16 30.8C24.56 30.8 23.2267 31.2533 22.16 32.16C21.1467 33.0667 20.64 34.3467 20.64 36C20.64 37.6 21.1467 38.88 22.16 39.84C23.2267 40.7467 24.56 41.2 26.16 41.2Z" fill="#FE9B27"/>
</svg>
