<svg width="46" height="56" viewBox="0 0 46 56" fill="none" xmlns="http://www.w3.org/2000/svg">
<path d="M2.36 -3.8147e-06H43.72C44.36 -3.8147e-06 44.8667 0.21333 45.24 0.639997C45.6667 1.06667 45.88 1.57333 45.88 2.16V12.72C45.88 13.9467 45.5333 15.3067 44.84 16.8L27.4 54.16C26.7067 55.3867 25.6133 56 24.12 56H8.68C8.2 56 7.77333 55.84 7.4 55.52C7.08 55.1467 6.92 54.7733 6.92 54.4C6.92 54.0267 6.97333 53.7333 7.08 53.52L24.36 16.4H2.36C1.77333 16.4 1.26667 16.1867 0.84 15.76C0.413333 15.3333 0.2 14.8267 0.2 14.24V2.16C0.2 1.57333 0.413333 1.06667 0.84 0.639997C1.26667 0.21333 1.77333 -3.8147e-06 2.36 -3.8147e-06Z" fill="#829DFF"/>
</svg>
