<svg width="52" height="58" viewBox="0 0 52 58" fill="none" xmlns="http://www.w3.org/2000/svg">
<path d="M2.4 16.84C2.4 12.1467 4.29333 8.2 8.08 5C11.8667 1.8 17.7867 0.199997 25.84 0.199997C33.9467 0.199997 39.8667 1.8 43.6 5C47.3333 8.14666 49.2 12.0667 49.2 16.76C49.2 21.4 47.6267 24.9467 44.48 27.4C46.6667 28.4667 48.4 30.12 49.68 32.36C50.96 34.6 51.6 36.9733 51.6 39.48C51.6 41.9867 51.12 44.28 50.16 46.36C49.2 48.44 47.7333 50.36 45.76 52.12C43.84 53.88 41.1733 55.2667 37.76 56.28C34.3467 57.2933 30.4 57.8 25.92 57.8C17.2267 57.8 10.8 56.04 6.64 52.52C2.48 49 0.4 44.68 0.4 39.56C0.4 37 1.04 34.6267 2.32 32.44C3.6 30.2533 5.28 28.5733 7.36 27.4C4.05333 25 2.4 21.48 2.4 16.84ZM29.92 43.08C30.9867 42.2267 31.52 41.08 31.52 39.64C31.52 38.2 30.9867 37.0533 29.92 36.2C28.9067 35.3467 27.5733 34.92 25.92 34.92C24.2667 34.92 22.9067 35.3467 21.84 36.2C20.8267 37.0533 20.32 38.2 20.32 39.64C20.32 41.08 20.8267 42.2267 21.84 43.08C22.9067 43.9333 24.2667 44.36 25.92 44.36C27.5733 44.36 28.9067 43.9333 29.92 43.08ZM29.6 21.16C30.56 20.3067 31.04 19.2667 31.04 18.04C31.04 16.8133 30.56 15.8 29.6 15C28.6933 14.1467 27.4667 13.72 25.92 13.72C24.3733 13.72 23.1467 14.1467 22.24 15C21.3333 15.8 20.88 16.8133 20.88 18.04C20.88 19.2667 21.3333 20.3067 22.24 21.16C23.1467 21.96 24.3733 22.36 25.92 22.36C27.4667 22.36 28.6933 21.96 29.6 21.16Z" fill="#855BB8"/>
</svg>
