<svg width="53" height="57" viewBox="0 0 53 57" fill="none" xmlns="http://www.w3.org/2000/svg">
<path d="M5.96046e-08 21.08C5.96046e-08 15.32 2.29333 10.4133 6.88 6.36C11.4667 2.25333 17.7867 0.199997 25.84 0.199997C33.9467 0.199997 40.3467 2.04 45.04 5.72C49.7333 9.4 52.08 14.2533 52.08 20.28C52.08 22.1467 51.68 24.12 50.88 26.2C50.08 28.2267 49.36 29.7733 48.72 30.84C48.08 31.9067 46.7467 33.7733 44.72 36.44C42.7467 39.0533 41.5467 40.68 41.12 41.32L30.56 55.4C29.8133 56.4667 28.7733 57 27.44 57H11.36C10.88 57 10.4533 56.84 10.08 56.52C9.76 56.1467 9.6 55.7467 9.6 55.32C9.6 54.8933 9.70667 54.52 9.92 54.2L20.4 40.2C14.2667 39.6133 9.12 37.2667 4.96 33.16C3.52 31.7733 2.32 30.04 1.36 27.96C0.453333 25.8267 5.96046e-08 23.5333 5.96046e-08 21.08ZM25.92 15.8C24.32 15.8 22.9867 16.28 21.92 17.24C20.9067 18.1467 20.4 19.4267 20.4 21.08C20.4 22.68 20.9067 23.9333 21.92 24.84C22.9867 25.7467 24.32 26.2 25.92 26.2C27.52 26.2 28.8267 25.7467 29.84 24.84C30.9067 23.9333 31.44 22.68 31.44 21.08C31.44 19.4267 30.9067 18.1467 29.84 17.24C28.8267 16.28 27.52 15.8 25.92 15.8Z" fill="#7ADDBA"/>
</svg>
