<svg width="155" height="38" viewBox="0 0 155 38" fill="none" xmlns="http://www.w3.org/2000/svg">
<path d="M13.632 6.664L5.424 7.048C4.912 7.048 4.384 6.712 3.84 6.04C3.296 5.368 3.024 4.712 3.024 4.072C3.024 3.496 3.936 3.128 5.76 2.968C7.616 2.808 11.664 2.728 17.904 2.728C21.136 2.728 23.792 3.08 25.872 3.784C27.984 4.488 29.04 5.272 29.04 6.136C29.04 6.744 28.512 7.048 27.456 7.048C26.4 7.048 24.928 6.984 23.04 6.856C21.152 6.728 19.344 6.648 17.616 6.616C17.712 6.936 17.76 7.288 17.76 7.672C17.76 8.856 16.512 14.36 14.016 24.184C13.76 25.208 13.376 26.808 12.864 28.984C12.352 31.16 11.968 32.68 11.712 33.544C11.264 35.24 10.864 36.088 10.512 36.088C10.032 36.088 9.488 35.736 8.88 35.032C8.304 34.296 8.016 33.56 8.016 32.824C8.016 32.088 8.88 28.312 10.608 21.496C12.336 14.648 13.344 9.704 13.632 6.664ZM31.3995 36.088C31.0155 36.088 30.5035 35.704 29.8635 34.936C29.2555 34.168 28.9515 33.464 28.9515 32.824C28.9515 32.184 29.8955 27.72 31.7835 19.432C33.7035 11.112 34.6795 5.96 34.7115 3.976C34.7115 3.432 34.7755 3.064 34.9035 2.872C35.0635 2.648 35.3675 2.536 35.8155 2.536C36.2955 2.536 36.9035 3.032 37.6395 4.024C38.4075 5.016 38.7915 6.088 38.7915 7.24C38.7915 8.36 37.6395 13.608 35.3355 22.984C35.1115 23.848 34.8075 25.096 34.4235 26.728C34.0395 28.328 33.7355 29.56 33.5115 30.424C33.2875 31.288 33.0475 32.232 32.7915 33.256C32.2475 35.144 31.7835 36.088 31.3995 36.088ZM67.5229 4.36C67.5869 2.984 67.9069 2.296 68.4829 2.296C69.0909 2.296 69.7469 2.664 70.4509 3.4C71.1549 4.136 71.5069 4.792 71.5069 5.368C71.5069 7.992 71.0909 11.72 70.2589 16.552C69.4589 21.384 68.3709 25.864 66.9949 29.992C65.6509 34.12 64.3709 36.184 63.1549 36.184C62.7389 36.184 62.2589 35.976 61.7149 35.56C61.2029 35.144 60.8029 34.632 60.5149 34.024C59.5549 31.784 56.7229 24.68 52.0189 12.712C51.0589 16.424 49.9869 20.632 48.8029 25.336C47.6509 30.008 46.8829 32.984 46.4989 34.264C46.1149 35.544 45.7789 36.184 45.4909 36.184C45.0749 36.184 44.5629 35.832 43.9549 35.128C43.3789 34.392 43.0909 33.64 43.0909 32.872C43.0909 32.104 44.1309 27.608 46.2109 19.384C48.2909 11.128 49.3629 5.976 49.4269 3.928C49.4269 2.904 49.6989 2.392 50.2429 2.392C50.5949 2.392 51.0749 2.696 51.6829 3.304C52.3229 3.88 52.7869 4.52 53.0749 5.224C58.2269 18.6 61.4909 26.792 62.8669 29.8C64.9469 24.296 66.3389 17.72 67.0429 10.072C67.3629 6.552 67.5229 4.648 67.5229 4.36ZM88.7273 19.096C89.3033 19.096 90.3433 17.736 91.8473 15.016C93.3833 12.264 94.9353 9.512 96.5033 6.76C98.1033 4.008 99.2393 2.632 99.9113 2.632C100.583 2.632 101.127 2.872 101.543 3.352C101.959 3.832 102.167 4.408 102.167 5.08C102.167 5.752 101.559 7.096 100.343 9.112C99.1273 11.128 97.4953 13.8 95.4473 17.128C93.3993 20.424 91.3513 24.008 89.3033 27.88C87.2553 31.752 85.8473 34.168 85.0793 35.128C84.3113 36.088 83.6873 36.568 83.2073 36.568C82.5033 36.568 82.1513 35.992 82.1513 34.84C82.1513 33.944 82.5993 32.584 83.4953 30.76C83.7833 30.216 84.0073 29.768 84.1673 29.416C84.3273 29.032 84.5833 28.504 84.9353 27.832C85.2873 27.16 85.5593 26.648 85.7513 26.296C85.9433 25.912 86.2313 25.336 86.6153 24.568C87.0313 23.768 87.3353 23.192 87.5273 22.84C85.6393 22.36 83.8953 21.176 82.2953 19.288C80.7273 17.368 79.5273 15.24 78.6953 12.904C77.8633 10.536 77.4473 8.232 77.4473 5.992C77.4473 3.752 78.0873 2.632 79.3672 2.632C79.8793 2.632 80.2793 3.128 80.5673 4.12C80.8873 5.112 81.2713 6.536 81.7193 8.392C82.1673 10.248 82.7593 11.96 83.4953 13.528C84.2313 15.064 85.1113 16.376 86.1353 17.464C87.1593 18.552 88.0233 19.096 88.7273 19.096Z" fill="#131313"/>
<path d="M101.38 36.052C100.348 35.38 99.652 34.792 99.292 34.288C98.932 33.808 99.076 33.364 99.724 32.956C99.868 32.86 100.096 32.944 100.408 33.208C100.744 33.448 101.02 33.676 101.236 33.892C101.716 34.324 102.304 34.588 103 34.684C103.72 34.804 104.524 34.744 105.412 34.504C106.42 34.192 107.296 33.76 108.04 33.208C108.808 32.632 109.528 31.936 110.2 31.12C110.704 30.472 111.052 29.776 111.244 29.032C111.436 28.264 111.508 27.556 111.46 26.908C111.436 26.26 111.304 25.804 111.064 25.54C110.464 24.7 109.624 24.124 108.544 23.812C107.488 23.476 106.24 23.5 104.8 23.884C104.632 23.908 104.38 23.956 104.044 24.028C103.708 24.1 103.408 24.172 103.144 24.244C102.88 24.292 102.736 24.316 102.712 24.316C102.544 24.364 102.412 24.424 102.316 24.496C102.22 24.544 102.1 24.724 101.956 25.036C101.836 25.324 101.644 25.852 101.38 26.62C101.116 27.364 100.72 28.468 100.192 29.932C99.688 31.396 99.28 32.44 98.968 33.064C98.68 33.664 98.416 33.94 98.176 33.892C97.96 33.82 97.684 33.556 97.348 33.1C97.156 32.764 97.036 32.44 96.988 32.128C96.94 31.792 97.036 31.408 97.276 30.976C97.396 30.76 97.492 30.568 97.564 30.4C97.636 30.208 97.732 29.884 97.852 29.428C97.972 29.068 98.2 28.444 98.536 27.556C98.896 26.644 99.316 25.588 99.796 24.388C100.276 23.164 100.78 21.904 101.308 20.608C101.836 19.312 102.34 18.088 102.82 16.936C103.324 15.784 103.744 14.812 104.08 14.02C104.416 13.276 104.62 12.736 104.692 12.4C104.764 12.064 104.74 11.884 104.62 11.86C104.62 11.74 104.584 11.632 104.512 11.536C104.44 11.416 104.416 11.308 104.44 11.212C104.44 11.116 104.596 10.984 104.908 10.816C105.244 10.648 105.604 10.492 105.988 10.348C106.396 10.204 106.708 10.156 106.924 10.204C107.044 10.204 107.188 10.204 107.356 10.204C107.524 10.18 107.608 10.12 107.608 10.024C107.68 10.024 107.908 10 108.292 9.952C108.676 9.904 109.096 9.904 109.552 9.952C111.16 10.096 112.408 10.564 113.296 11.356C114.184 12.124 114.616 13.18 114.592 14.524C114.568 14.932 114.352 15.484 113.944 16.18C113.56 16.876 113.08 17.572 112.504 18.268C111.952 18.964 111.412 19.552 110.884 20.032C110.572 20.296 110.236 20.572 109.876 20.86C109.54 21.124 109.24 21.352 108.976 21.544C108.736 21.712 108.616 21.796 108.616 21.796C108.616 21.796 108.712 21.832 108.904 21.904C109.096 21.976 109.3 22.048 109.516 22.12C110.62 22.528 111.532 23.044 112.252 23.668C112.972 24.292 113.464 25.156 113.728 26.26C113.824 26.62 113.824 27.064 113.728 27.592C113.656 28.12 113.548 28.648 113.404 29.176C113.26 29.68 113.104 30.112 112.936 30.472C112.768 30.64 112.636 30.82 112.54 31.012C112.444 31.18 112.396 31.264 112.396 31.264C112.396 31.312 112.3 31.504 112.108 31.84C111.916 32.152 111.688 32.5 111.424 32.884C111.16 33.268 110.908 33.604 110.668 33.892C110.428 34.084 110.14 34.312 109.804 34.576C109.492 34.84 109.132 35.092 108.724 35.332C108.34 35.572 107.92 35.776 107.464 35.944C106.792 36.232 106.06 36.424 105.268 36.52C104.5 36.64 103.768 36.652 103.072 36.556C102.376 36.484 101.812 36.316 101.38 36.052ZM103.144 22.192C103.144 22.192 103.36 22.156 103.792 22.084C104.248 21.988 104.74 21.892 105.268 21.796C105.796 21.676 106.18 21.568 106.42 21.472C106.54 21.4 106.708 21.304 106.924 21.184C107.164 21.064 107.404 20.884 107.644 20.644C107.98 20.332 108.4 19.888 108.904 19.312C109.432 18.712 109.948 18.088 110.452 17.44C110.956 16.768 111.34 16.168 111.604 15.64C112.156 14.776 112.456 14.14 112.504 13.732C112.552 13.3 112.42 12.928 112.108 12.616C111.892 12.352 111.52 12.184 110.992 12.112C110.488 12.016 109.948 11.992 109.372 12.04C108.796 12.064 108.304 12.136 107.896 12.256C107.584 12.352 107.344 12.472 107.176 12.616C107.008 12.736 106.924 12.928 106.924 13.192C106.924 13.408 106.852 13.624 106.708 13.84C106.588 14.032 106.468 14.188 106.348 14.308C106.324 14.476 106.264 14.632 106.168 14.776C106.072 14.896 106.024 14.956 106.024 14.956C106.024 15.052 105.856 15.448 105.52 16.144C105.184 16.84 104.848 17.644 104.512 18.556C104.08 19.588 103.744 20.428 103.504 21.076C103.264 21.7 103.144 22.072 103.144 22.192ZM119.264 35.116C119.096 34.852 118.712 34.684 118.112 34.612C117.536 34.54 116.828 34.528 115.988 34.576C115.652 34.624 115.328 34.6 115.016 34.504C114.704 34.432 114.452 34.3 114.26 34.108C114.092 33.94 114.032 33.76 114.08 33.568C114.104 33.28 114.344 33.052 114.8 32.884C115.28 32.716 116.036 32.62 117.068 32.596L118.976 32.56L119.336 31.84C119.432 31.576 119.552 31.204 119.696 30.724C119.84 30.244 119.996 29.728 120.164 29.176C120.26 28.84 120.404 28.384 120.596 27.808C120.788 27.232 120.992 26.62 121.208 25.972C121.424 25.324 121.616 24.748 121.784 24.244C121.952 23.716 122.06 23.344 122.108 23.128C122.204 22.912 122.336 22.552 122.504 22.048C122.672 21.52 122.828 20.992 122.972 20.464C123.14 19.912 123.248 19.516 123.296 19.276C123.92 17.38 124.328 16.036 124.52 15.244C124.712 14.428 124.76 14.008 124.664 13.984C124.568 13.984 124.328 13.996 123.944 14.02C123.584 14.044 123.176 14.08 122.72 14.128C122.288 14.152 121.892 14.188 121.532 14.236C121.196 14.284 120.992 14.332 120.92 14.38C120.8 14.548 120.596 14.584 120.308 14.488C120.02 14.392 119.84 14.224 119.768 13.984C119.744 13.768 119.732 13.6 119.732 13.48C119.756 13.36 119.828 13.264 119.948 13.192C120.116 13.048 120.44 12.892 120.92 12.724C121.4 12.532 121.94 12.364 122.54 12.22C123.164 12.076 123.752 11.968 124.304 11.896C124.712 11.848 125.12 11.764 125.528 11.644C125.936 11.5 126.26 11.332 126.5 11.14C126.716 11.068 126.92 11.008 127.112 10.96C127.328 10.912 127.544 10.9 127.76 10.924C127.952 11.044 128.276 11.104 128.732 11.104C129.212 11.104 129.716 11.092 130.244 11.068C131.588 10.948 132.488 10.912 132.944 10.96C133.424 11.008 133.748 11.2 133.916 11.536C134.036 11.992 134.06 12.352 133.988 12.616C133.916 12.856 133.676 12.964 133.268 12.94C133.052 12.988 132.656 13.036 132.08 13.084C131.528 13.108 130.94 13.132 130.316 13.156C128.612 13.3 127.7 13.468 127.58 13.66C127.484 13.756 127.4 13.852 127.328 13.948C127.28 14.044 127.208 14.152 127.112 14.272C127.136 14.368 127.076 14.68 126.932 15.208C126.812 15.712 126.656 16.228 126.464 16.756C126.368 17.068 126.224 17.512 126.032 18.088C125.84 18.664 125.636 19.264 125.42 19.888C125.228 20.488 125.048 21.04 124.88 21.544C124.712 22.024 124.592 22.348 124.52 22.516C124.424 22.732 124.34 22.972 124.268 23.236C124.22 23.476 124.184 23.656 124.16 23.776C123.824 24.952 123.524 25.948 123.26 26.764C123.02 27.58 122.792 28.3 122.576 28.924C122.384 29.524 122.204 30.112 122.036 30.688C121.868 31.24 121.688 31.852 121.496 32.524C121.496 32.524 121.676 32.512 122.036 32.488C122.42 32.44 122.924 32.392 123.548 32.344C124.676 32.224 125.48 32.152 125.96 32.128C126.464 32.104 126.8 32.14 126.968 32.236C127.136 32.308 127.256 32.452 127.328 32.668C127.808 33.316 127.868 33.76 127.508 34C127.148 34.24 126.296 34.348 124.952 34.324C123.704 34.372 122.744 34.408 122.072 34.432C121.424 34.48 120.968 34.54 120.704 34.612C120.464 34.684 120.32 34.804 120.272 34.972C120.272 35.164 120.176 35.26 119.984 35.26C119.792 35.26 119.552 35.212 119.264 35.116ZM136.81 34.972C136.714 35.068 136.606 35.104 136.486 35.08C136.366 35.08 136.174 35.02 135.91 34.9C135.454 34.78 135.166 34.6 135.046 34.36C134.95 34.144 135.022 33.772 135.262 33.244C135.358 33.076 135.478 32.716 135.622 32.164C135.79 31.588 135.97 30.928 136.162 30.184C136.354 29.44 136.546 28.696 136.738 27.952C136.93 27.208 137.098 26.56 137.242 26.008C137.386 25.432 137.482 25.048 137.53 24.856C137.53 24.664 137.578 24.28 137.674 23.704C137.794 23.128 137.902 22.48 137.998 21.76C138.262 21.256 138.442 20.704 138.538 20.104C138.658 19.504 138.742 19.072 138.79 18.808C138.886 18.424 138.994 18.016 139.114 17.584C139.258 17.152 139.378 16.72 139.474 16.288C139.57 15.904 139.666 15.508 139.762 15.1C139.882 14.692 139.942 14.428 139.942 14.308V13.732H138.61C138.25 13.756 137.722 13.756 137.026 13.732C136.33 13.708 135.706 13.696 135.154 13.696C134.026 13.648 133.27 13.54 132.886 13.372C132.526 13.18 132.322 12.82 132.274 12.292C132.226 12.004 132.286 11.8 132.454 11.68C132.622 11.56 133.018 11.488 133.642 11.464C134.266 11.44 135.226 11.452 136.522 11.5C137.53 11.452 138.406 11.452 139.15 11.5C139.894 11.524 140.314 11.536 140.41 11.536C140.506 11.44 140.566 11.344 140.59 11.248C140.614 11.152 140.65 11.056 140.698 10.96C140.698 10.84 140.71 10.708 140.734 10.564C140.782 10.396 140.902 10.276 141.094 10.204C141.286 9.844 141.502 9.7 141.742 9.772C142.006 9.82 142.27 10.036 142.534 10.42C142.63 10.636 142.714 10.864 142.786 11.104C142.882 11.344 143.014 11.56 143.182 11.752C143.278 11.656 143.53 11.596 143.938 11.572C144.346 11.548 144.778 11.524 145.234 11.5C145.786 11.5 146.278 11.488 146.71 11.464C147.142 11.416 147.442 11.392 147.61 11.392C147.826 11.272 148.102 11.212 148.438 11.212C148.798 11.212 149.158 11.236 149.518 11.284C150.07 11.284 150.454 11.308 150.67 11.356C150.91 11.404 151.066 11.488 151.138 11.608C151.138 11.704 151.138 11.8 151.138 11.896C151.162 11.992 151.222 12.088 151.318 12.184C151.414 12.28 151.462 12.352 151.462 12.4C151.462 12.424 151.414 12.532 151.318 12.724C151.222 12.82 151.054 12.904 150.814 12.976C150.574 13.024 150.31 13.048 150.022 13.048C149.854 13.048 149.566 13.072 149.158 13.12C148.75 13.144 148.402 13.156 148.114 13.156C147.562 13.252 146.938 13.336 146.242 13.408C145.57 13.456 144.814 13.504 143.974 13.552C143.614 13.552 143.278 13.576 142.966 13.624C142.654 13.648 142.498 13.72 142.498 13.84C142.402 13.84 142.27 14.092 142.102 14.596C141.958 15.1 141.814 15.628 141.67 16.18C141.526 16.804 141.37 17.344 141.202 17.8C141.058 18.256 140.938 18.556 140.842 18.7C140.938 18.796 140.974 18.916 140.95 19.06C140.95 19.204 140.878 19.456 140.734 19.816C140.638 20.152 140.542 20.416 140.446 20.608C140.374 20.8 140.338 20.992 140.338 21.184C140.338 21.184 140.278 21.376 140.158 21.76C140.062 22.12 139.966 22.576 139.87 23.128C139.822 23.656 139.75 24.1 139.654 24.46C139.582 24.82 139.498 25.048 139.402 25.144C139.402 25.144 139.354 25.228 139.258 25.396C139.162 25.54 139.114 25.708 139.114 25.9C139.114 26.116 139.066 26.476 138.97 26.98C138.898 27.46 138.814 27.916 138.718 28.348C138.622 28.78 138.538 29.02 138.466 29.068C138.706 29.116 138.67 29.44 138.358 30.04C138.358 30.28 138.322 30.52 138.25 30.76C138.178 31 138.142 31.168 138.142 31.264C137.998 31.72 137.83 32.224 137.638 32.776C137.446 33.328 137.278 33.808 137.134 34.216C136.99 34.648 136.882 34.9 136.81 34.972Z" fill="#855BB8"/>
</svg>
